<?xml version="1.0" encoding="UTF-8"?>
<!DOCTYPE svg PUBLIC "-//W3C//DTD SVG 1.1//EN" "http://www.w3.org/Graphics/SVG/1.1/DTD/svg11.dtd">
<!-- Creator: CorelDRAW 2020 (64 Bit) -->
<svg xmlns="http://www.w3.org/2000/svg" xml:space="preserve" width="35mm" height="35mm" version="1.1" style="shape-rendering:geometricPrecision; text-rendering:geometricPrecision; image-rendering:optimizeQuality; fill-rule:evenodd; clip-rule:evenodd"
viewBox="0 0 3500 3500"
 xmlns:xlink="http://www.w3.org/1999/xlink"
 xmlns:xodm="http://www.corel.com/coreldraw/odm/2003">
 <defs>
  <style type="text/css">
   <![CDATA[
    .str0 {stroke:#ED3237;stroke-width:26.45;stroke-miterlimit:22.9256}
    .fil0 {fill:none}
   ]]>
  </style>
 </defs>
 <g id="Camada_x0020_1">
  <metadata id="CorelCorpID_0Corel-Layer"/>
  <path class="fil0 str0" d="M1876.94 594.21l147.59 153.83c50.57,52.69 64.02,126.28 35.37,193.46 -28.65,67.18 -91.05,108.42 -164.08,108.42l-313.89 0c-74.89,0 -138.79,-43.61 -166.1,-113.35 -27.31,-69.74 -10.02,-145.12 44.97,-195.98l166.3 -153.83c71.28,-65.93 182.62,-62.6 249.84,7.45z"/>
  <path class="fil0 str0" d="M1747.4 102.6c911.22,0 1650,738.77 1650,1649.99 0,911.22 -738.78,1650.01 -1650,1650.01 -911.23,0 -1650,-738.78 -1650,-1650.01 0,-911.22 738.78,-1649.99 1650,-1649.99z"/>
 </g>
</svg>
