<?xml version="1.0" encoding="UTF-8"?>
<!DOCTYPE svg PUBLIC "-//W3C//DTD SVG 1.1//EN" "http://www.w3.org/Graphics/SVG/1.1/DTD/svg11.dtd">
<!-- Creator: CorelDRAW 2020 (64 Bit) -->
<svg xmlns="http://www.w3.org/2000/svg" xml:space="preserve" width="35mm" height="35mm" version="1.1" style="shape-rendering:geometricPrecision; text-rendering:geometricPrecision; image-rendering:optimizeQuality; fill-rule:evenodd; clip-rule:evenodd"
viewBox="0 0 3500 3500"
 xmlns:xlink="http://www.w3.org/1999/xlink"
 xmlns:xodm="http://www.corel.com/coreldraw/odm/2003">
 <defs>
  <style type="text/css">
   <![CDATA[
    .fil0 {fill:#FDBC38}
   ]]>
  </style>
 </defs>
 <g id="Camada_x0020_1">
  <metadata id="CorelCorpID_0Corel-Layer"/>
  <path class="fil0" d="M1811.87 656.64c-33.15,-34.56 -88.39,-36.21 -123.54,-3.69l-166.3 153.83c-27.73,25.66 -36.01,61.73 -22.24,96.91 13.78,35.18 44.35,56.06 82.14,56.06l313.89 0c36.9,0 66.66,-19.68 81.14,-53.62 14.41,-33.79 7.93,-69.16 -17.5,-95.66l-147.59 -153.83z"/>
  <path class="fil0" d="M1747.4 2.6c966.41,0 1750,783.57 1750,1749.99 0,966.41 -783.58,1750.01 -1750,1750.01 -966.43,0 -1750,-783.59 -1750,-1750.01 0,-966.42 783.59,-1749.99 1750,-1749.99z"/>
 </g>
</svg>
