<?xml version="1.0" encoding="UTF-8"?>
<!DOCTYPE svg PUBLIC "-//W3C//DTD SVG 1.1//EN" "http://www.w3.org/Graphics/SVG/1.1/DTD/svg11.dtd">
<!-- Creator: CorelDRAW 2020 (64 Bit) -->
<svg xmlns="http://www.w3.org/2000/svg" xml:space="preserve" width="35mm" height="35mm" version="1.1" style="shape-rendering:geometricPrecision; text-rendering:geometricPrecision; image-rendering:optimizeQuality; fill-rule:evenodd; clip-rule:evenodd"
viewBox="0 0 3500 3500"
 xmlns:xlink="http://www.w3.org/1999/xlink"
 xmlns:xodm="http://www.corel.com/coreldraw/odm/2003">
 <defs>
  <style type="text/css">
   <![CDATA[
    .fil0 {fill:#373435;fill-rule:nonzero}
   ]]>
  </style>
 </defs>
 <g id="Camada_x0020_1">
  <metadata id="CorelCorpID_0Corel-Layer"/>
  <g id="_1183427888">
   <polygon class="fil0" points="896.57,2617.67 896.57,2691.68 946.68,2691.68 946.68,2604.82 977.65,2604.82 977.65,2730.24 790.55,2730.24 790.55,2605.08 821.78,2605.08 821.78,2691.68 866.37,2691.68 866.37,2617.67 "/>
   <path class="fil0" d="M838.61 2550.46l16.07 -1.15c-12.43,-9.94 -18.64,-23.26 -18.64,-39.97 0,-14.73 4.33,-25.69 12.98,-32.89 8.66,-7.2 21.59,-10.88 38.81,-11.05l89.82 0 0 37.13 -88.93 0c-7.87,0 -13.59,1.71 -17.15,5.14 -3.55,3.43 -5.33,9.13 -5.33,17.1 0,10.45 4.46,18.29 13.37,23.51l98.04 0 0 37.14 -139.04 0 0 -34.96z"/>
   <path class="fil0" d="M950.28 2379.43c0,-6.85 -1.89,-12.42 -5.65,-16.7 -3.78,-4.29 -8.79,-6.51 -15.05,-6.68l0 -34.83c9.43,0.09 18.06,2.66 25.9,7.72 7.84,5.05 13.93,11.97 18.24,20.75 4.33,8.78 6.5,18.48 6.5,29.1 0,19.87 -6.32,35.55 -18.95,47.03 -12.64,11.48 -30.09,17.22 -52.37,17.22l-2.44 0c-21.41,0 -38.51,-5.7 -51.28,-17.09 -12.75,-11.4 -19.13,-27.03 -19.13,-46.9 0,-17.39 4.94,-31.33 14.83,-41.83 9.9,-10.49 23.07,-15.82 39.52,-16l0 34.83c-7.24,0.17 -13.11,2.39 -17.63,6.68 -4.53,4.28 -6.79,9.94 -6.79,16.96 0,8.65 3.16,15.18 9.46,19.6 6.31,4.41 16.54,6.61 30.69,6.61l3.86 0c14.34,0 24.63,-2.18 30.89,-6.55 6.27,-4.37 9.4,-11.01 9.4,-19.92z"/>
   <path class="fil0" d="M909.48 2268.67c13.22,0 23.32,-2.49 30.31,-7.46 6.99,-4.97 10.49,-12.07 10.49,-21.33 0,-8.99 -3.45,-16.01 -10.36,-21.07 -6.91,-5.05 -17.96,-7.58 -33.14,-7.58 -12.95,0 -22.99,2.53 -30.12,7.58 -7.12,5.06 -10.67,12.17 -10.67,21.33 0,9.08 3.53,16.1 10.61,21.07 7.08,4.97 18.04,7.46 32.88,7.46zm-2.63 37.13c-13.8,0 -26.09,-2.65 -36.88,-7.96 -10.79,-5.32 -19.15,-12.96 -25.06,-22.94 -5.91,-9.98 -8.87,-21.57 -8.87,-34.76 0,-18.76 5.75,-34.07 17.22,-45.94 11.48,-11.86 27.07,-18.48 46.78,-19.85l9.5 -0.26c21.33,0 38.45,5.96 51.34,17.86 12.89,11.91 19.34,27.89 19.34,47.93 0,20.05 -6.43,36.04 -19.27,48 -12.86,11.95 -30.33,17.92 -52.44,17.92l-1.66 0z"/>
   <path class="fil0" d="M838.61 2117.04l16.07 -1.16c-12.43,-9.94 -18.64,-23.26 -18.64,-39.96 0,-14.73 4.33,-25.7 12.98,-32.89 8.66,-7.2 21.59,-10.89 38.81,-11.06l89.82 0 0 37.14 -88.93 0c-7.87,0 -13.59,1.71 -17.15,5.14 -3.55,3.42 -5.33,9.13 -5.33,17.09 0,10.45 4.46,18.29 13.37,23.51l98.04 0 0 37.14 -139.04 0 0 -34.95z"/>
   <path class="fil0" d="M804.43 1959.37l34.18 0 0 -23.76 27.25 0 0 23.76 69.39 0c5.13,0 8.82,-0.98 11.04,-2.95 2.24,-1.97 3.35,-5.74 3.35,-11.31 0,-4.11 -0.3,-7.75 -0.9,-10.92l28.14 0c2.22,7.28 3.34,14.78 3.34,22.49 0,26.04 -13.15,39.31 -39.45,39.83l-74.91 0 0 20.3 -27.25 0 0 -20.3 -34.18 0 0 -37.14z"/>
   <path class="fil0" d="M873.44 1836.78c-0.69,5.07 -1.03,9.52 -1.03,13.37 0,14.05 4.76,23.26 14.26,27.63l90.98 0 0 37.13 -139.04 0 0 -35.07 16.58 -1.04c-12.76,-7.45 -19.15,-17.77 -19.15,-30.96 0,-4.11 0.56,-7.97 1.67,-11.57l35.73 0.51z"/>
   <path class="fil0" d="M909.48 1792.2c13.22,0 23.32,-2.49 30.31,-7.46 6.99,-4.96 10.49,-12.07 10.49,-21.32 0,-9 -3.45,-16.02 -10.36,-21.08 -6.91,-5.05 -17.96,-7.58 -33.14,-7.58 -12.95,0 -22.99,2.53 -30.12,7.58 -7.12,5.06 -10.67,12.17 -10.67,21.33 0,9.08 3.53,16.11 10.61,21.07 7.08,4.97 18.04,7.46 32.88,7.46zm-2.63 37.13c-13.8,0 -26.09,-2.65 -36.88,-7.96 -10.79,-5.31 -19.15,-12.96 -25.06,-22.94 -5.91,-9.98 -8.87,-21.56 -8.87,-34.76 0,-18.76 5.75,-34.07 17.22,-45.94 11.48,-11.86 27.07,-18.48 46.78,-19.85l9.5 -0.26c21.33,0 38.45,5.96 51.34,17.87 12.89,11.9 19.34,27.88 19.34,47.93 0,20.04 -6.43,36.04 -19.27,47.99 -12.86,11.95 -30.33,17.92 -52.44,17.92l-1.66 0z"/>
   <path class="fil0" d="M963.51 1591.48c11.14,9.17 16.71,21.85 16.71,38.04 0,14.9 -4.28,26.28 -12.85,34.12 -8.57,7.83 -21.12,11.84 -37.65,12.02l-91.11 0 0 -37.15 89.93 0c14.49,0 21.74,-6.59 21.74,-19.78 0,-12.6 -4.37,-21.25 -13.12,-25.96l-98.55 0 0 -37.27 139.04 0 0 34.96 -14.14 1.02z"/>
   <path class="fil0" d="M959.72 1500.89c-5.72,0 -10.44,-1.95 -14.15,-5.85 -3.72,-3.9 -5.57,-8.88 -5.57,-14.97 0,-6.08 1.85,-11.06 5.57,-14.96 3.71,-3.91 8.43,-5.85 14.15,-5.85 5.64,0 10.29,1.91 13.96,5.72 3.68,3.81 5.51,8.84 5.51,15.09 0,6.26 -1.83,11.29 -5.51,15.11 -3.67,3.81 -8.32,5.71 -13.96,5.71zm-39.38 -3.73c-12.01,0 -21.57,-1.45 -28.69,-4.36 -7.11,-2.91 -14.12,-8.25 -21.02,-16 -6.91,-7.75 -12.53,-12.92 -16.86,-15.49 -4.33,-2.56 -8.9,-3.85 -13.71,-3.85 -14.5,0 -21.75,6.68 -21.75,20.04 0,6.35 1.95,11.43 5.86,15.23 3.91,3.82 9.29,5.81 16.16,5.97l0 37.27c-16.38,-0.17 -29.2,-5.46 -38.45,-15.86 -9.26,-10.42 -13.9,-24.61 -13.9,-42.61 0,-18.15 4.4,-32.25 13.19,-42.27 8.79,-10.02 21.2,-15.03 37.24,-15.03 7.29,0 14.17,1.63 20.64,4.88 6.47,3.25 13.66,8.95 21.54,17.08l9.91 10.41c6.26,6.52 13.59,10.24 21.99,11.19l7.85 0.51 0 32.89z"/>
  </g>
  <g id="_1183426496">
   <path class="fil0" d="M2654.65 2663.75c-10.54,0 -18.23,1.68 -23.08,5.01 -4.85,3.34 -7.27,8.32 -7.27,14.94 0,8.87 3.62,14.97 10.89,18.31l41.15 0c7.32,-3.4 10.98,-9.57 10.98,-18.5 0,-9 -4.43,-14.91 -13.3,-17.74 -4.23,-1.34 -10.7,-2.02 -19.37,-2.02zm2.03 -27.85c16.7,0 29.72,3.56 39.07,10.69 9.35,7.13 14.03,17.09 14.03,29.88 0,11.31 -4.34,20.34 -13.01,27.08l11.08 1.25 0 25.07 -148.03 0 0 -27.86 53.1 0c-7.52,-6.42 -11.27,-14.87 -11.27,-25.34 0,-12.73 4.67,-22.7 14.02,-29.93 9.35,-7.22 22.5,-10.84 39.47,-10.84l1.54 0z"/>
   <path class="fil0" d="M2688.48 2581.35c0,-4.11 -0.92,-7.9 -2.75,-11.37 -1.83,-3.47 -4.29,-6.05 -7.37,-7.71l-17.92 0 0 10.41c0,13.94 4.81,21.37 14.45,22.26l1.64 0.1c3.47,0 6.33,-1.23 8.58,-3.67 2.24,-2.43 3.37,-5.77 3.37,-10.02zm19.37 -23.03c-2.5,1.28 -5.62,2.21 -9.35,2.79 7.52,6.75 11.28,15.52 11.28,26.32 0,10.21 -2.96,18.68 -8.87,25.39 -5.91,6.71 -13.36,10.07 -22.36,10.07 -11.05,0 -19.53,-4.1 -25.44,-12.29 -5.91,-8.19 -8.9,-20.02 -8.96,-35.51l0 -12.82 -5.98 0c-4.82,0 -8.67,1.24 -11.56,3.71 -2.89,2.47 -4.34,6.37 -4.34,11.71 0,4.69 1.13,8.37 3.37,11.04 2.25,2.66 5.34,4 9.25,4l0 27.84c-6.03,0 -11.63,-1.86 -16.76,-5.58 -5.14,-3.73 -9.17,-9 -12.1,-15.81 -2.92,-6.81 -4.38,-14.46 -4.38,-22.93 0,-12.86 3.23,-23.06 9.68,-30.61 6.46,-7.55 15.54,-11.32 27.23,-11.32l45.2 0c9.89,-0.06 17.37,-1.45 22.45,-4.14l1.64 0 0 28.14z"/>
   <path class="fil0" d="M2603.57 2487.29l12.05 -0.87c-9.31,-7.45 -13.98,-17.44 -13.98,-29.97 0,-11.05 3.25,-19.28 9.74,-24.67 6.48,-5.4 16.19,-8.16 29.11,-8.29l67.36 0 0 27.85 -66.69 0c-5.91,0 -10.2,1.29 -12.86,3.86 -2.67,2.57 -4.01,6.84 -4.01,12.82 0,7.83 3.35,13.71 10.03,17.63l73.53 0 0 27.85 -104.28 0 0 -26.21z"/>
   <path class="fil0" d="M2688.48 2365c0,-4.12 -0.92,-7.91 -2.75,-11.38 -1.83,-3.46 -4.29,-6.04 -7.37,-7.71l-17.92 0 0 10.41c0,13.94 4.81,21.37 14.45,22.26l1.64 0.1c3.47,0 6.33,-1.22 8.58,-3.66 2.24,-2.44 3.37,-5.78 3.37,-10.02zm19.37 -23.04c-2.5,1.29 -5.62,2.22 -9.35,2.8 7.52,6.74 11.28,15.51 11.28,26.31 0,10.21 -2.96,18.68 -8.87,25.39 -5.91,6.71 -13.36,10.07 -22.36,10.07 -11.05,0 -19.53,-4.09 -25.44,-12.28 -5.91,-8.2 -8.9,-20.03 -8.96,-35.52l0 -12.82 -5.98 0c-4.82,0 -8.67,1.24 -11.56,3.71 -2.89,2.47 -4.34,6.38 -4.34,11.71 0,4.69 1.13,8.37 3.37,11.04 2.25,2.67 5.34,4 9.25,4l0 27.85c-6.03,0 -11.63,-1.86 -16.76,-5.59 -5.14,-3.73 -9.17,-8.99 -12.1,-15.8 -2.92,-6.81 -4.38,-14.46 -4.38,-22.94 0,-12.85 3.23,-23.06 9.68,-30.6 6.46,-7.55 15.54,-11.33 27.23,-11.33l45.2 0c9.89,-0.06 17.37,-1.44 22.45,-4.14l1.64 0 0 28.14z"/>
   <path class="fil0" d="M2603.57 2270.93l12.05 -0.86c-9.31,-7.45 -13.98,-17.44 -13.98,-29.98 0,-11.04 3.25,-19.27 9.74,-24.67 6.48,-5.4 16.19,-8.16 29.11,-8.29l67.36 0 0 27.85 -66.69 0c-5.91,0 -10.2,1.29 -12.86,3.86 -2.67,2.57 -4.01,6.84 -4.01,12.82 0,7.84 3.35,13.72 10.03,17.63l73.53 0 0 27.86 -104.28 0 0 -26.22z"/>
   <path class="fil0" d="M2688.48 2148.63c0,-4.11 -0.92,-7.9 -2.75,-11.37 -1.83,-3.47 -4.29,-6.04 -7.37,-7.71l-17.92 0 0 10.41c0,13.94 4.81,21.37 14.45,22.26l1.64 0.1c3.47,0 6.33,-1.22 8.58,-3.66 2.24,-2.44 3.37,-5.78 3.37,-10.03zm19.37 -23.03c-2.5,1.28 -5.62,2.21 -9.35,2.79 7.52,6.75 11.28,15.52 11.28,26.32 0,10.21 -2.96,18.68 -8.87,25.39 -5.91,6.71 -13.36,10.07 -22.36,10.07 -11.05,0 -19.53,-4.09 -25.44,-12.29 -5.91,-8.19 -8.9,-20.02 -8.96,-35.51l0 -12.82 -5.98 0c-4.82,0 -8.67,1.24 -11.56,3.71 -2.89,2.47 -4.34,6.38 -4.34,11.71 0,4.69 1.13,8.37 3.37,11.04 2.25,2.66 5.34,4 9.25,4l0 27.84c-6.03,0 -11.63,-1.86 -16.76,-5.58 -5.14,-3.73 -9.17,-9 -12.1,-15.8 -2.92,-6.81 -4.38,-14.47 -4.38,-22.94 0,-12.85 3.23,-23.06 9.68,-30.6 6.46,-7.55 15.54,-11.33 27.23,-11.33l45.2 0c9.89,-0.06 17.37,-1.44 22.45,-4.14l1.64 0 0 28.14z"/>
   <path class="fil0" d="M2577.94 2046.86l25.63 0 0 -17.83 20.44 0 0 17.83 52.04 0c3.86,0 6.61,-0.74 8.29,-2.22 1.66,-1.47 2.5,-4.3 2.5,-8.48 0,-3.08 -0.22,-5.81 -0.67,-8.19l21.1 0c1.67,5.46 2.51,11.09 2.51,16.87 0,19.53 -9.86,29.48 -29.59,29.87l-56.18 0 0 15.23 -20.44 0 0 -15.23 -25.63 0 0 -27.85z"/>
   <path class="fil0" d="M2688.48 1976.12c0,-4.11 -0.92,-7.9 -2.75,-11.37 -1.83,-3.46 -4.29,-6.04 -7.37,-7.71l-17.92 0 0 10.41c0,13.94 4.81,21.37 14.45,22.26l1.64 0.1c3.47,0 6.33,-1.22 8.58,-3.66 2.24,-2.44 3.37,-5.78 3.37,-10.03zm19.37 -23.03c-2.5,1.28 -5.62,2.22 -9.35,2.79 7.52,6.75 11.28,15.52 11.28,26.32 0,10.21 -2.96,18.68 -8.87,25.39 -5.91,6.71 -13.36,10.07 -22.36,10.07 -11.05,0 -19.53,-4.09 -25.44,-12.29 -5.91,-8.19 -8.9,-20.02 -8.96,-35.51l0 -12.82 -5.98 0c-4.82,0 -8.67,1.24 -11.56,3.71 -2.89,2.47 -4.34,6.38 -4.34,11.71 0,4.69 1.13,8.37 3.37,11.04 2.25,2.67 5.34,4 9.25,4l0 27.85c-6.03,0 -11.63,-1.87 -16.76,-5.59 -5.14,-3.73 -9.17,-9 -12.1,-15.8 -2.92,-6.81 -4.38,-14.47 -4.38,-22.94 0,-12.85 3.23,-23.06 9.68,-30.6 6.46,-7.55 15.54,-11.33 27.23,-11.33l45.2 0c9.89,-0.06 17.37,-1.44 22.45,-4.14l1.64 0 0 28.14z"/>
   <path class="fil0" d="M2657.02 1883.89c9.45,0 16.87,-1.89 22.25,-5.68 5.37,-3.79 8.05,-9 8.05,-15.61 0,-8.49 -3.19,-14.56 -9.56,-18.22l-43.91 0c-6.37,3.73 -9.55,9.73 -9.55,18.02 0,6.68 2.73,11.93 8.2,15.76 5.47,3.82 13.64,5.73 24.52,5.73zm-2.08 27.86c-16,0 -28.88,-3.82 -38.65,-11.43 -9.76,-7.61 -14.64,-17.87 -14.64,-30.79 0,-11.44 3.92,-20.33 11.76,-26.7l-9.84 -1.15 0 -25.25 100.81 0c9.12,0 17.06,2.07 23.8,6.21 6.75,4.15 11.89,9.98 15.42,17.5 3.54,7.52 5.31,16.32 5.31,26.4 0,7.65 -1.53,15.11 -4.58,22.36 -3.05,7.26 -6.99,12.75 -11.81,16.48l-16.96 -12.33c7.77,-6.94 11.66,-15.36 11.66,-25.25 0,-7.39 -1.97,-13.14 -5.93,-17.25 -3.95,-4.11 -9.55,-6.17 -16.82,-6.17l-5.58 0c7.26,6.43 10.89,14.88 10.89,25.35 0,12.52 -4.9,22.66 -14.7,30.4 -9.8,7.74 -22.79,11.62 -38.98,11.62l-1.16 0z"/>
   <path class="fil0" d="M2694.16 1793.59c-4.43,0 -8.03,-1.5 -10.79,-4.48 -2.76,-2.99 -4.14,-6.73 -4.14,-11.23 0,-4.56 1.38,-8.33 4.14,-11.32 2.76,-2.99 6.36,-4.48 10.79,-4.48 4.37,0 7.93,1.48 10.65,4.43 2.73,2.96 4.1,6.75 4.1,11.37 0,4.56 -1.37,8.32 -4.1,11.28 -2.72,2.95 -6.28,4.43 -10.65,4.43z"/>
   <path class="fil0" d="M2687.32 1694.33c0,-5.14 -1.41,-9.32 -4.24,-12.53 -2.82,-3.21 -6.58,-4.88 -11.27,-5.01l0 -26.12c7.06,0.07 13.54,1.99 19.42,5.78 5.88,3.79 10.44,8.98 13.68,15.57 3.24,6.58 4.87,13.86 4.87,21.82 0,14.91 -4.74,26.67 -14.21,35.28 -9.49,8.6 -22.58,12.91 -39.28,12.91l-1.83 0c-16.06,0 -28.88,-4.27 -38.46,-12.82 -9.57,-8.54 -14.35,-20.26 -14.35,-35.17 0,-13.05 3.71,-23.5 11.13,-31.37 7.42,-7.87 17.3,-11.87 29.63,-12l0 26.12c-5.42,0.13 -9.83,1.8 -13.22,5.01 -3.4,3.21 -5.09,7.46 -5.09,12.72 0,6.49 2.37,11.39 7.09,14.7 4.73,3.31 12.41,4.96 23.02,4.96l2.9 0c10.75,0 18.47,-1.64 23.17,-4.92 4.69,-3.27 7.04,-8.25 7.04,-14.93z"/>
   <path class="fil0" d="M2656.73 1611.25c9.91,0 17.48,-1.86 22.73,-5.59 5.24,-3.72 7.86,-9.06 7.86,-15.99 0,-6.75 -2.59,-12.02 -7.77,-15.81 -5.17,-3.79 -13.46,-5.69 -24.85,-5.69 -9.72,0 -17.24,1.9 -22.59,5.69 -5.34,3.79 -8.01,9.12 -8.01,15.99 0,6.82 2.66,12.09 7.97,15.81 5.3,3.73 13.52,5.59 24.66,5.59zm-1.98 27.85c-10.35,0 -19.56,-1.99 -27.66,-5.97 -8.1,-3.98 -14.36,-9.72 -18.8,-17.2 -4.43,-7.49 -6.64,-16.18 -6.64,-26.08 0,-14.07 4.3,-25.55 12.91,-34.44 8.61,-8.9 20.3,-13.87 35.08,-14.89l7.13 -0.2c16,0 28.84,4.47 38.5,13.4 9.67,8.93 14.51,20.91 14.51,35.95 0,15.03 -4.82,27.03 -14.46,35.99 -9.64,8.96 -22.74,13.44 -39.32,13.44l-1.25 0z"/>
   <path class="fil0" d="M2603.57 1497.05l11.66 -0.87c-9.05,-7.39 -13.59,-17.38 -13.59,-29.97 0,-13.43 5.31,-22.65 15.91,-27.66 -10.6,-7.32 -15.91,-17.76 -15.91,-31.32 0,-11.31 3.3,-19.72 9.89,-25.25 6.58,-5.53 16.49,-8.29 29.73,-8.29l66.59 0 0 27.95 -66.5 0c-5.91,0 -10.23,1.15 -12.96,3.47 -2.73,2.31 -4.1,6.39 -4.1,12.24 0,8.35 3.99,14.13 11.95,17.35l71.61 -0.11 0 27.86 -66.4 0c-6.04,0 -10.41,1.19 -13.11,3.56 -2.7,2.38 -4.05,6.43 -4.05,12.15 0,7.9 3.28,13.62 9.83,17.15l73.73 0 0 27.86 -104.28 0 0 -26.12z"/>
   <path class="fil0" d="M2694.16 1350.85c-4.43,0 -8.03,-1.49 -10.79,-4.48 -2.76,-2.99 -4.14,-6.73 -4.14,-11.23 0,-4.56 1.38,-8.33 4.14,-11.32 2.76,-2.99 6.36,-4.48 10.79,-4.48 4.37,0 7.93,1.48 10.65,4.43 2.73,2.96 4.1,6.75 4.1,11.37 0,4.56 -1.37,8.32 -4.1,11.28 -2.72,2.95 -6.28,4.43 -10.65,4.43z"/>
   <path class="fil0" d="M2654.65 1228.84c-10.54,0 -18.23,1.67 -23.08,5.01 -4.85,3.35 -7.27,8.33 -7.27,14.94 0,8.87 3.62,14.97 10.89,18.31l41.15 0c7.32,-3.4 10.98,-9.57 10.98,-18.51 0,-8.99 -4.43,-14.9 -13.3,-17.73 -4.23,-1.35 -10.7,-2.02 -19.37,-2.02zm2.03 -27.85c16.7,0 29.72,3.57 39.07,10.7 9.35,7.13 14.03,17.09 14.03,29.87 0,11.31 -4.34,20.33 -13.01,27.09l11.08 1.25 0 25.05 -148.03 0 0 -27.85 53.1 0c-7.52,-6.43 -11.27,-14.87 -11.27,-25.35 0,-12.72 4.67,-22.69 14.02,-29.92 9.35,-7.23 22.5,-10.84 39.47,-10.84l1.54 0z"/>
   <path class="fil0" d="M2629.69 1125.24c-0.51,3.79 -0.77,7.13 -0.77,10.02 0,10.54 3.56,17.44 10.7,20.72l68.23 0 0 27.85 -104.28 0 0 -26.3 12.43 -0.78c-9.57,-5.59 -14.35,-13.33 -14.35,-23.22 0,-3.08 0.41,-5.98 1.25,-8.68l26.79 0.39z"/>
  </g>
 </g>
</svg>
