<?xml version="1.0" encoding="UTF-8"?>
<!DOCTYPE svg PUBLIC "-//W3C//DTD SVG 1.1//EN" "http://www.w3.org/Graphics/SVG/1.1/DTD/svg11.dtd">
<!-- Creator: CorelDRAW 2020 (64 Bit) -->
<svg xmlns="http://www.w3.org/2000/svg" xml:space="preserve" width="35mm" height="35mm" version="1.1" style="shape-rendering:geometricPrecision; text-rendering:geometricPrecision; image-rendering:optimizeQuality; fill-rule:evenodd; clip-rule:evenodd"
viewBox="0 0 3500 3500"
 xmlns:xlink="http://www.w3.org/1999/xlink"
 xmlns:xodm="http://www.corel.com/coreldraw/odm/2003">
 <defs>
  <style type="text/css">
   <![CDATA[
    .str0 {stroke:#ED3237;stroke-width:26.45;stroke-miterlimit:22.9256}
    .fil2 {fill:none}
    .fil0 {fill:#FDBC38}
    .fil1 {fill:#000000;fill-rule:nonzero}
   ]]>
  </style>
 </defs>
 <g id="Camada_x0020_1">
  <metadata id="CorelCorpID_0Corel-Layer"/>
  <path class="fil0" d="M1747.4 2.6c966.41,0 1750,783.57 1750,1749.99 0,966.41 -783.58,1750.01 -1750,1750.01 -966.43,0 -1750,-783.59 -1750,-1750.01 0,-966.42 783.59,-1749.99 1750,-1749.99z"/>
  <g id="_1094782000">
   <polygon class="fil1" points="837.79,2464.73 837.79,2538.74 887.9,2538.74 887.9,2451.88 918.87,2451.88 918.87,2577.3 731.77,2577.3 731.77,2452.14 763,2452.14 763,2538.74 807.59,2538.74 807.59,2464.73 "/>
   <path class="fil1" d="M779.83 2397.52l16.07 -1.15c-12.43,-9.94 -18.64,-23.26 -18.64,-39.97 0,-14.73 4.33,-25.69 12.98,-32.89 8.66,-7.2 21.59,-10.88 38.81,-11.05l89.82 0 0 37.13 -88.93 0c-7.87,0 -13.59,1.71 -17.15,5.14 -3.55,3.43 -5.33,9.13 -5.33,17.1 0,10.45 4.46,18.29 13.37,23.51l98.04 0 0 37.14 -139.04 0 0 -34.96z"/>
   <path class="fil1" d="M891.5 2226.49c0,-6.85 -1.89,-12.42 -5.65,-16.7 -3.78,-4.29 -8.79,-6.51 -15.05,-6.68l0 -34.83c9.43,0.09 18.06,2.66 25.9,7.72 7.84,5.05 13.93,11.97 18.24,20.75 4.33,8.78 6.5,18.48 6.5,29.1 0,19.87 -6.32,35.55 -18.95,47.03 -12.64,11.48 -30.09,17.22 -52.37,17.22l-2.44 0c-21.41,0 -38.51,-5.7 -51.28,-17.09 -12.75,-11.4 -19.13,-27.03 -19.13,-46.9 0,-17.39 4.94,-31.33 14.83,-41.83 9.9,-10.49 23.07,-15.82 39.52,-16l0 34.83c-7.24,0.17 -13.11,2.39 -17.63,6.68 -4.53,4.28 -6.79,9.94 -6.79,16.96 0,8.65 3.16,15.18 9.46,19.6 6.31,4.41 16.54,6.61 30.69,6.61l3.86 0c14.34,0 24.63,-2.18 30.89,-6.55 6.27,-4.37 9.4,-11.01 9.4,-19.92z"/>
   <path class="fil1" d="M850.7 2115.73c13.22,0 23.32,-2.49 30.31,-7.46 6.99,-4.97 10.49,-12.07 10.49,-21.33 0,-8.99 -3.45,-16.01 -10.36,-21.07 -6.91,-5.05 -17.96,-7.58 -33.14,-7.58 -12.95,0 -22.99,2.53 -30.12,7.58 -7.12,5.06 -10.67,12.17 -10.67,21.33 0,9.08 3.53,16.1 10.61,21.07 7.08,4.97 18.04,7.46 32.88,7.46zm-2.63 37.13c-13.8,0 -26.09,-2.65 -36.88,-7.96 -10.79,-5.32 -19.15,-12.96 -25.06,-22.94 -5.91,-9.98 -8.87,-21.57 -8.87,-34.76 0,-18.76 5.75,-34.07 17.22,-45.94 11.48,-11.86 27.07,-18.48 46.78,-19.85l9.5 -0.26c21.33,0 38.45,5.96 51.34,17.86 12.89,11.91 19.34,27.89 19.34,47.93 0,20.05 -6.43,36.04 -19.27,48 -12.86,11.95 -30.33,17.92 -52.44,17.92l-1.66 0z"/>
   <path class="fil1" d="M779.83 1964.1l16.07 -1.16c-12.43,-9.94 -18.64,-23.26 -18.64,-39.96 0,-14.73 4.33,-25.7 12.98,-32.89 8.66,-7.2 21.59,-10.89 38.81,-11.06l89.82 0 0 37.14 -88.93 0c-7.87,0 -13.59,1.71 -17.15,5.14 -3.55,3.42 -5.33,9.13 -5.33,17.09 0,10.45 4.46,18.29 13.37,23.51l98.04 0 0 37.14 -139.04 0 0 -34.95z"/>
   <path class="fil1" d="M745.65 1806.43l34.18 0 0 -23.76 27.25 0 0 23.76 69.39 0c5.13,0 8.82,-0.98 11.04,-2.95 2.24,-1.97 3.35,-5.74 3.35,-11.31 0,-4.11 -0.3,-7.75 -0.9,-10.92l28.14 0c2.22,7.28 3.34,14.78 3.34,22.49 0,26.04 -13.15,39.31 -39.45,39.83l-74.91 0 0 20.3 -27.25 0 0 -20.3 -34.18 0 0 -37.14z"/>
   <path class="fil1" d="M814.66 1683.84c-0.69,5.07 -1.03,9.52 -1.03,13.37 0,14.05 4.76,23.26 14.26,27.63l90.98 0 0 37.13 -139.04 0 0 -35.07 16.58 -1.04c-12.76,-7.45 -19.15,-17.77 -19.15,-30.96 0,-4.11 0.56,-7.97 1.67,-11.57l35.73 0.51z"/>
   <path class="fil1" d="M850.7 1639.26c13.22,0 23.32,-2.49 30.31,-7.46 6.99,-4.96 10.49,-12.07 10.49,-21.32 0,-9 -3.45,-16.02 -10.36,-21.08 -6.91,-5.05 -17.96,-7.58 -33.14,-7.58 -12.95,0 -22.99,2.53 -30.12,7.58 -7.12,5.06 -10.67,12.17 -10.67,21.33 0,9.08 3.53,16.11 10.61,21.07 7.08,4.97 18.04,7.46 32.88,7.46zm-2.63 37.13c-13.8,0 -26.09,-2.65 -36.88,-7.96 -10.79,-5.31 -19.15,-12.96 -25.06,-22.94 -5.91,-9.98 -8.87,-21.56 -8.87,-34.76 0,-18.76 5.75,-34.07 17.22,-45.94 11.48,-11.86 27.07,-18.48 46.78,-19.85l9.5 -0.26c21.33,0 38.45,5.96 51.34,17.87 12.89,11.9 19.34,27.88 19.34,47.93 0,20.04 -6.43,36.04 -19.27,47.99 -12.86,11.95 -30.33,17.92 -52.44,17.92l-1.66 0z"/>
   <path class="fil1" d="M904.73 1438.54c11.14,9.17 16.71,21.85 16.71,38.04 0,14.9 -4.28,26.28 -12.85,34.12 -8.57,7.83 -21.12,11.84 -37.65,12.02l-91.11 0 0 -37.15 89.93 0c14.49,0 21.74,-6.59 21.74,-19.78 0,-12.6 -4.37,-21.25 -13.12,-25.96l-98.55 0 0 -37.27 139.04 0 0 34.96 -14.14 1.02z"/>
   <path class="fil1" d="M900.94 1347.95c-5.72,0 -10.44,-1.95 -14.15,-5.85 -3.72,-3.9 -5.57,-8.88 -5.57,-14.97 0,-6.08 1.85,-11.06 5.57,-14.96 3.71,-3.91 8.43,-5.85 14.15,-5.85 5.64,0 10.29,1.91 13.96,5.72 3.68,3.81 5.51,8.84 5.51,15.09 0,6.26 -1.83,11.29 -5.51,15.11 -3.67,3.81 -8.32,5.71 -13.96,5.71zm-39.38 -3.73c-12.01,0 -21.57,-1.45 -28.69,-4.36 -7.11,-2.91 -14.12,-8.25 -21.02,-16 -6.91,-7.75 -12.53,-12.92 -16.86,-15.49 -4.33,-2.56 -8.9,-3.85 -13.71,-3.85 -14.5,0 -21.75,6.68 -21.75,20.04 0,6.35 1.95,11.43 5.86,15.23 3.91,3.82 9.29,5.81 16.16,5.97l0 37.27c-16.38,-0.17 -29.2,-5.46 -38.45,-15.86 -9.26,-10.42 -13.9,-24.61 -13.9,-42.61 0,-18.15 4.4,-32.25 13.19,-42.27 8.79,-10.02 21.2,-15.03 37.24,-15.03 7.29,0 14.17,1.63 20.64,4.88 6.47,3.25 13.66,8.95 21.54,17.08l9.91 10.41c6.26,6.52 13.59,10.24 21.99,11.19l7.85 0.51 0 32.89z"/>
  </g>
  <g id="_1094780512">
   <path class="fil1" d="M2693.96 2644.85c-11.09,0 -19.18,1.76 -24.28,5.27 -5.1,3.51 -7.66,8.75 -7.66,15.72 0,9.33 3.82,15.75 11.46,19.26l43.3 0c7.7,-3.58 11.55,-10.07 11.55,-19.47 0,-9.46 -4.66,-15.68 -13.99,-18.66 -4.46,-1.41 -11.26,-2.12 -20.38,-2.12zm2.13 -29.31c17.58,0 31.28,3.75 41.11,11.26 9.84,7.5 14.76,17.98 14.76,31.42 0,11.91 -4.56,21.41 -13.69,28.5l11.66 1.32 0 26.37 -155.74 0 0 -29.31 55.87 0c-7.91,-6.76 -11.86,-15.64 -11.86,-26.66 0,-13.39 4.91,-23.88 14.75,-31.49 9.83,-7.6 23.67,-11.41 41.52,-11.41l1.62 0z"/>
   <path class="fil1" d="M2729.55 2558.16c0,-4.33 -0.97,-8.32 -2.89,-11.97 -1.93,-3.64 -4.51,-6.36 -7.75,-8.11l-18.86 0 0 10.95c0,14.67 5.06,22.48 15.2,23.42l1.73 0.11c3.65,0 6.66,-1.29 9.02,-3.86 2.37,-2.57 3.55,-6.08 3.55,-10.54zm20.38 -24.23c-2.63,1.35 -5.91,2.32 -9.84,2.93 7.91,7.1 11.87,16.33 11.87,27.69 0,10.74 -3.11,19.65 -9.33,26.72 -6.21,7.05 -14.06,10.59 -23.53,10.59 -11.62,0 -20.54,-4.31 -26.76,-12.93 -6.22,-8.62 -9.36,-21.07 -9.43,-37.36l0 -13.49 -6.29 0c-5.06,0 -9.12,1.3 -12.16,3.9 -3.05,2.6 -4.57,6.71 -4.57,12.32 0,4.93 1.19,8.81 3.55,11.62 2.37,2.8 5.61,4.2 9.74,4.2l0 29.3c-6.35,0 -12.24,-1.96 -17.65,-5.87 -5.4,-3.93 -9.64,-9.47 -12.72,-16.63 -3.08,-7.17 -4.62,-15.22 -4.62,-24.13 0,-13.53 3.41,-24.26 10.19,-32.2 6.8,-7.95 16.35,-11.92 28.65,-11.92l47.55 0c10.41,-0.06 18.28,-1.52 23.62,-4.35l1.73 0 0 29.61z"/>
   <path class="fil1" d="M2640.22 2459.2l12.68 -0.92c-9.8,-7.84 -14.71,-18.35 -14.71,-31.53 0,-11.62 3.42,-20.28 10.25,-25.96 6.82,-5.68 17.03,-8.59 30.62,-8.72l70.87 0 0 29.3 -70.16 0c-6.22,0 -10.74,1.36 -13.54,4.06 -2.81,2.71 -4.21,7.2 -4.21,13.49 0,8.24 3.52,14.43 10.55,18.55l77.36 0 0 29.3 -109.71 0 0 -27.57z"/>
   <path class="fil1" d="M2729.55 2330.53c0,-4.33 -0.97,-8.32 -2.89,-11.97 -1.93,-3.64 -4.51,-6.35 -7.75,-8.11l-18.86 0 0 10.95c0,14.67 5.06,22.49 15.2,23.43l1.73 0.1c3.65,0 6.66,-1.29 9.02,-3.86 2.37,-2.56 3.55,-6.07 3.55,-10.54zm20.38 -24.23c-2.63,1.35 -5.91,2.33 -9.84,2.94 7.91,7.09 11.87,16.32 11.87,27.68 0,10.74 -3.11,19.65 -9.33,26.72 -6.21,7.06 -14.06,10.59 -23.53,10.59 -11.62,0 -20.54,-4.31 -26.76,-12.93 -6.22,-8.62 -9.36,-21.07 -9.43,-37.36l0 -13.49 -6.29 0c-5.06,0 -9.12,1.31 -12.16,3.91 -3.05,2.6 -4.57,6.7 -4.57,12.31 0,4.94 1.19,8.82 3.55,11.62 2.37,2.81 5.61,4.21 9.74,4.21l0 29.3c-6.35,0 -12.24,-1.96 -17.65,-5.88 -5.4,-3.92 -9.64,-9.47 -12.72,-16.63 -3.08,-7.16 -4.62,-15.21 -4.62,-24.13 0,-13.52 3.41,-24.26 10.19,-32.2 6.8,-7.94 16.35,-11.91 28.65,-11.91l47.55 0c10.41,-0.07 18.28,-1.52 23.62,-4.36l1.73 0 0 29.61z"/>
   <path class="fil1" d="M2640.22 2231.57l12.68 -0.91c-9.8,-7.84 -14.71,-18.35 -14.71,-31.54 0,-11.62 3.42,-20.28 10.25,-25.95 6.82,-5.69 17.03,-8.59 30.62,-8.72l70.87 0 0 29.3 -70.16 0c-6.22,0 -10.74,1.35 -13.54,4.06 -2.81,2.7 -4.21,7.19 -4.21,13.48 0,8.25 3.52,14.43 10.55,18.55l77.36 0 0 29.31 -109.71 0 0 -27.58z"/>
   <path class="fil1" d="M2729.55 2102.9c0,-4.33 -0.97,-8.32 -2.89,-11.97 -1.93,-3.64 -4.51,-6.36 -7.75,-8.11l-18.86 0 0 10.95c0,14.67 5.06,22.49 15.2,23.42l1.73 0.11c3.65,0 6.66,-1.29 9.02,-3.86 2.37,-2.56 3.55,-6.08 3.55,-10.54zm20.38 -24.23c-2.63,1.35 -5.91,2.33 -9.84,2.93 7.91,7.1 11.87,16.33 11.87,27.69 0,10.74 -3.11,19.65 -9.33,26.72 -6.21,7.06 -14.06,10.59 -23.53,10.59 -11.62,0 -20.54,-4.31 -26.76,-12.93 -6.22,-8.62 -9.36,-21.07 -9.43,-37.36l0 -13.49 -6.29 0c-5.06,0 -9.12,1.3 -12.16,3.91 -3.05,2.59 -4.57,6.7 -4.57,12.31 0,4.94 1.19,8.81 3.55,11.62 2.37,2.8 5.61,4.21 9.74,4.21l0 29.29c-6.35,0 -12.24,-1.95 -17.65,-5.87 -5.4,-3.92 -9.64,-9.47 -12.72,-16.63 -3.08,-7.17 -4.62,-15.22 -4.62,-24.13 0,-13.52 3.41,-24.26 10.19,-32.2 6.8,-7.94 16.35,-11.91 28.65,-11.91l47.55 0c10.41,-0.07 18.28,-1.52 23.62,-4.36l1.73 0 0 29.61z"/>
   <path class="fil1" d="M2613.25 1995.82l26.97 0 0 -18.76 21.5 0 0 18.76 54.75 0c4.06,0 6.96,-0.77 8.72,-2.33 1.75,-1.55 2.64,-4.53 2.64,-8.92 0,-3.24 -0.24,-6.12 -0.71,-8.62l22.2 0c1.76,5.74 2.64,11.67 2.64,17.75 0,20.55 -10.38,31.02 -31.13,31.43l-59.11 0 0 16.02 -21.5 0 0 -16.02 -26.97 0 0 -29.31z"/>
   <path class="fil1" d="M2729.55 1921.4c0,-4.32 -0.97,-8.31 -2.89,-11.96 -1.93,-3.65 -4.51,-6.36 -7.75,-8.11l-18.86 0 0 10.95c0,14.67 5.06,22.48 15.2,23.42l1.73 0.11c3.65,0 6.66,-1.29 9.02,-3.86 2.37,-2.57 3.55,-6.08 3.55,-10.55zm20.38 -24.23c-2.63,1.35 -5.91,2.33 -9.84,2.94 7.91,7.1 11.87,16.33 11.87,27.68 0,10.75 -3.11,19.66 -9.33,26.72 -6.21,7.06 -14.06,10.59 -23.53,10.59 -11.62,0 -20.54,-4.3 -26.76,-12.92 -6.22,-8.62 -9.36,-21.07 -9.43,-37.37l0 -13.48 -6.29 0c-5.06,0 -9.12,1.3 -12.16,3.9 -3.05,2.6 -4.57,6.71 -4.57,12.32 0,4.93 1.19,8.81 3.55,11.61 2.37,2.81 5.61,4.21 9.74,4.21l0 29.3c-6.35,0 -12.24,-1.96 -17.65,-5.87 -5.4,-3.93 -9.64,-9.47 -12.72,-16.64 -3.08,-7.16 -4.62,-15.21 -4.62,-24.13 0,-13.52 3.41,-24.25 10.19,-32.19 6.8,-7.95 16.35,-11.92 28.65,-11.92l47.55 0c10.41,-0.06 18.28,-1.52 23.62,-4.36l1.73 0 0 29.61z"/>
   <path class="fil1" d="M2696.45 1824.37c9.95,0 17.75,-1.99 23.41,-5.98 5.65,-3.99 8.47,-9.47 8.47,-16.43 0,-8.92 -3.35,-15.31 -10.05,-19.16l-46.2 0c-6.7,3.92 -10.06,10.24 -10.06,18.96 0,7.03 2.88,12.55 8.64,16.58 5.75,4.02 14.35,6.03 25.79,6.03zm-2.19 29.3c-16.83,0 -30.38,-4.01 -40.66,-12.02 -10.26,-8.01 -15.4,-18.8 -15.4,-32.39 0,-12.03 4.12,-21.39 12.37,-28.09l-10.35 -1.21 0 -26.56 106.06 0c9.6,0 17.95,2.17 25.04,6.53 7.1,4.36 12.51,10.5 16.22,18.4 3.72,7.92 5.59,17.18 5.59,27.79 0,8.04 -1.61,15.89 -4.82,23.52 -3.21,7.64 -7.35,13.42 -12.42,17.34l-17.85 -12.98c8.18,-7.3 12.27,-16.15 12.27,-26.57 0,-7.77 -2.07,-13.82 -6.24,-18.14 -4.15,-4.33 -10.05,-6.49 -17.69,-6.49l-5.88 0c7.64,6.76 11.46,15.65 11.46,26.66 0,13.18 -5.16,23.85 -15.46,31.99 -10.31,8.15 -23.98,12.22 -41.02,12.22l-1.22 0z"/>
   <path class="fil1" d="M2735.53 1729.36c-4.66,0 -8.45,-1.57 -11.35,-4.71 -2.91,-3.14 -4.36,-7.08 -4.36,-11.82 0,-4.79 1.45,-8.76 4.36,-11.9 2.9,-3.15 6.69,-4.72 11.35,-4.72 4.6,0 8.34,1.55 11.21,4.66 2.87,3.11 4.3,7.1 4.3,11.96 0,4.8 -1.43,8.76 -4.3,11.87 -2.87,3.11 -6.61,4.66 -11.21,4.66z"/>
   <path class="fil1" d="M2728.33 1624.93c0,-5.4 -1.48,-9.8 -4.46,-13.18 -2.97,-3.38 -6.93,-5.14 -11.86,-5.28l0 -27.47c7.43,0.07 14.25,2.09 20.43,6.08 6.19,3.99 10.98,9.45 14.4,16.38 3.41,6.93 5.12,14.58 5.12,22.96 0,15.69 -4.98,28.06 -14.95,37.11 -9.98,9.06 -23.75,13.59 -41.33,13.59l-1.92 0c-16.9,0 -30.38,-4.49 -40.46,-13.49 -10.07,-8.99 -15.1,-21.32 -15.1,-37 0,-13.73 3.9,-24.73 11.71,-33.01 7.8,-8.28 18.19,-12.48 31.17,-12.62l0 27.47c-5.7,0.14 -10.34,1.9 -13.91,5.28 -3.57,3.38 -5.35,7.84 -5.35,13.38 0,6.83 2.49,11.99 7.46,15.46 4.98,3.49 13.05,5.23 24.22,5.23l3.05 0c11.3,0 19.43,-1.73 24.37,-5.18 4.94,-3.44 7.41,-8.68 7.41,-15.71z"/>
   <path class="fil1" d="M2696.14 1537.53c10.43,0 18.4,-1.96 23.92,-5.88 5.52,-3.92 8.27,-9.54 8.27,-16.83 0,-7.1 -2.72,-12.64 -8.17,-16.63 -5.45,-3.99 -14.17,-5.99 -26.15,-5.99 -10.22,0 -18.14,2 -23.76,5.99 -5.62,3.99 -8.43,9.59 -8.43,16.82 0,7.18 2.79,12.72 8.38,16.64 5.58,3.92 14.23,5.88 25.94,5.88zm-2.08 29.3c-10.88,0 -20.58,-2.1 -29.1,-6.29 -8.51,-4.19 -15.11,-10.22 -19.77,-18.09 -4.66,-7.88 -6.99,-17.02 -6.99,-27.44 0,-14.8 4.52,-26.88 13.58,-36.24 9.06,-9.36 21.36,-14.58 36.91,-15.66l7.5 -0.21c16.84,0 30.34,4.7 40.51,14.1 10.17,9.39 15.26,22 15.26,37.82 0,15.81 -5.07,28.43 -15.21,37.87 -10.14,9.42 -23.93,14.14 -41.37,14.14l-1.32 0z"/>
   <path class="fil1" d="M2640.22 1417.38l12.27 -0.92c-9.53,-7.77 -14.3,-18.28 -14.3,-31.53 0,-14.13 5.59,-23.83 16.74,-29.1 -11.15,-7.71 -16.74,-18.69 -16.74,-32.96 0,-11.89 3.47,-20.74 10.4,-26.56 6.93,-5.81 17.35,-8.72 31.28,-8.72l70.06 0 0 29.4 -69.96 0c-6.22,0 -10.77,1.22 -13.64,3.65 -2.87,2.44 -4.31,6.73 -4.31,12.88 0,8.79 4.19,14.87 12.57,18.25l75.34 -0.1 0 29.3 -69.86 0c-6.35,0 -10.95,1.26 -13.79,3.75 -2.84,2.5 -4.26,6.76 -4.26,12.78 0,8.31 3.45,14.33 10.35,18.05l77.56 0 0 29.3 -109.71 0 0 -27.47z"/>
   <path class="fil1" d="M2735.53 1263.56c-4.66,0 -8.45,-1.57 -11.35,-4.71 -2.91,-3.15 -4.36,-7.08 -4.36,-11.82 0,-4.79 1.45,-8.76 4.36,-11.91 2.9,-3.14 6.69,-4.71 11.35,-4.71 4.6,0 8.34,1.55 11.21,4.66 2.87,3.11 4.3,7.1 4.3,11.96 0,4.81 -1.43,8.76 -4.3,11.87 -2.87,3.11 -6.61,4.66 -11.21,4.66z"/>
   <path class="fil1" d="M2693.96 1135.2c-11.09,0 -19.18,1.76 -24.28,5.27 -5.1,3.52 -7.66,8.76 -7.66,15.71 0,9.33 3.82,15.76 11.46,19.27l43.3 0c7.7,-3.58 11.55,-10.07 11.55,-19.47 0,-9.46 -4.66,-15.68 -13.99,-18.65 -4.46,-1.43 -11.26,-2.13 -20.38,-2.13zm2.13 -29.31c17.58,0 31.28,3.76 41.11,11.26 9.84,7.5 14.76,17.98 14.76,31.43 0,11.9 -4.56,21.39 -13.69,28.5l11.66 1.31 0 26.36 -155.74 0 0 -29.3 55.87 0c-7.91,-6.76 -11.86,-15.65 -11.86,-26.67 0,-13.38 4.91,-23.88 14.75,-31.48 9.83,-7.61 23.67,-11.41 41.52,-11.41l1.62 0z"/>
   <path class="fil1" d="M2667.7 1026.2c-0.54,3.99 -0.81,7.5 -0.81,10.54 0,11.09 3.75,18.35 11.26,21.81l71.78 0 0 29.3 -109.71 0 0 -27.68 13.08 -0.82c-10.07,-5.88 -15.1,-14.02 -15.1,-24.43 0,-3.24 0.43,-6.29 1.31,-9.13l28.19 0.41z"/>
  </g>
  <path class="fil2 str0" d="M1747.4 102.6c911.22,0 1650,738.77 1650,1649.99 0,911.22 -738.78,1650.01 -1650,1650.01 -911.23,0 -1650,-738.78 -1650,-1650.01 0,-911.22 738.78,-1649.99 1650,-1649.99z"/>
  <path class="fil2 str0" d="M1876.94 594.21l147.59 153.83c50.57,52.69 64.02,126.28 35.37,193.46 -28.65,67.18 -91.05,108.42 -164.08,108.42l-313.89 0c-74.89,0 -138.79,-43.61 -166.1,-113.35 -27.31,-69.74 -10.02,-145.12 44.97,-195.98l166.3 -153.83c71.28,-65.93 182.62,-62.6 249.84,7.45z"/>
 </g>
</svg>
